{"title":"Motive.S01.Season.1.Ep1-11.720p.WEB-DL.AC3.H.264-Liebe_Ist","uid":11727077,"size":15639254745,"categoryP":"video","categoryS":"hd___tv_shows","magnet":"?xt=urn:btih:f97e1e4636a647b3f122d7c294b69a20139a236c&amp;dn=Motive.S01.Season.1.Ep1-11.720p.WEB-DL.AC3.H.264-Liebe_Ist&amp;tr=udp%3A%2F%2Ftracker.openbittorrent.com%3A80&amp;tr=udp%3A%2F%2Fopen.demonii.com%3A1337&amp;tr=udp%3A%2F%2Ftracker.coppersurfer.tk%3A6969&amp;tr=udp%3A%2F%2Fexodus.desync.com%3A6969","seeders":5,"leechers":2,"uploader":"Liebe_Ist","files":11,"time":1425113846,"description":"Motive.S01E01.720p.WEB-DL.AC3.H.264-Liebe_Ist\nMotive.S01E02.720p.WEB-DL.AC3.H.264-Liebe_Ist\nMotive.S01E03.720p.WEB-DL.AC3.H.264-Liebe_Ist\nMotive.S01E04.720p.WEB-DL.AC3.H.264-Liebe_Ist\nMotive.S01E05.720p.WEB-DL.AC3.H.264-Liebe_Ist\nMotive.S01E06.720p.WEB-DL.AC3.H.264-Liebe_Ist\nMotive.S01E07.720p.WEB-DL.AC3.H.264-Liebe_Ist\nMotive.S01E08.720p.WEB-DL.AC3.H.264-Liebe_Ist\nMotive.S01E09.720p.WEB-DL.AC3.H.264-Liebe_Ist\nMotive.S01E10.720p.WEB-DL.AC3.H.264-Liebe_Ist\nMotive.S01E11.720p.WEB-DL.AC3.H.264-Liebe_Ist\n\nEpisodes 12+13 missing.\n\nStats for first episode:\n\nGeneral\nFormat                         : Matroska\nFormat version                 : Version 4 / Version 2\nFile size                      : 1.35 GiB\nDuration                       : 43mn 12s\nOverall bit rate               : 4 482 Kbps\nEncoded date                   : UTC 2015-02-27 14:07:54\nWriting application            : mkvmerge v6.8.0 ('Theme for Great Cities') 64bit built on Mar  2 2014 21:34:26\nWriting library                : libebml v1.3.0 + libmatroska v1.4.1\n\nVideo\nID                             : 1\nFormat                         : AVC\nFormat/Info                    : Advanced Video Codec\nFormat profile                 : &lt;a class=&quot;__cf_email__&quot; href=&quot;/cdn-cgi/l/email-protection&quot; data-cfemail=&quot;fab2939d92bab6c9d4cb&quot;&gt;[email&amp;#160;protected]&lt;/a&gt;&lt;script cf-hash='f9e31' type=&quot;text/javascript&quot;&gt;\n/* &lt;![CDATA[ */!function(){try{var t=&quot;currentScript&quot;in document?document.currentScript:function(){for(var t=document.getElementsByTagName(&quot;script&quot;),e=t.length;e--;)if(t[e].getAttribute(&quot;cf-hash&quot;))return t[e]}();if(t&amp;&amp;t.previousSibling){var e,r,n,i,c=t.previousSibling,a=c.getAttribute(&quot;data-cfemail&quot;);if(a){for(e=&quot;&quot;,r=parseInt(a.substr(0,2),16),n=2;a.length-n;n+=2)i=parseInt(a.substr(n,2),16)^r,e+=String.fromCharCode(i);e=document.createTextNode(e),c.parentNode.replaceChild(e,c)}}}catch(u){}}();/* ]]&gt; */&lt;/script&gt;\nFormat settings, CABAC         : No\nFormat settings, ReFrames      : 2 frames\nCodec ID                       : V_MPEG4/ISO/AVC\nDuration                       : 43mn 12s\nBit rate                       : 4 009 Kbps\nWidth                          : 1 280 pixels\nHeight                         : 720 pixels\nDisplay aspect ratio           : 16:9\nFrame rate mode                : Constant\nFrame rate                     : 23.976 fps\nColor space                    : YUV\nChroma subsampling             : 4:2:0\nBit depth                      : 8 bits\nScan type                      : Progressive\nBits/(Pixel*Frame)             : 0.181\nStream size                    : 1.21 GiB (89%)\nLanguage                       : English\nDefault                        : Yes\nForced                         : No\nColor primaries                : BT.709\nTransfer characteristics       : BT.709\nMatrix coefficients            : BT.709\n\nAudio\nID                             : 2\nFormat                         : AC-3\nFormat/Info                    : Audio Coding 3\nMode extension                 : CM (complete main)\nFormat settings, Endianness    : Big\nCodec ID                       : A_AC3\nDuration                       : 43mn 12s\nBit rate mode                  : Constant\nBit rate                       : 384 Kbps\nChannel count                  : 6 channels\nChannel positions              : Front: L C R, Side: L R, LFE\nSampling rate                  : 48.0 KHz\nBit depth                      : 16 bits\nCompression mode               : Lossy\nStream size                    : 119 MiB (9%)\nLanguage                       : English\nDefault                        : No\nForced                         : No","torrent":{"xt":"urn:btih:f97e1e4636a647b3f122d7c294b69a20139a236c","amp;dn":"Motive.S01.Season.1.Ep1-11.720p.WEB-DL.AC3.H.264-Liebe_Ist","amp;tr":["udp%3A%2F%2Ftracker.openbittorrent.com%3A80","udp%3A%2F%2Fopen.demonii.com%3A1337","udp%3A%2F%2Ftracker.coppersurfer.tk%3A6969","udp%3A%2F%2Fexodus.desync.com%3A6969"],"infoHash":"f97e1e4636a647b3f122d7c294b69a20139a236c","infoHashBuffer":{"type":"Buffer","data":[249,126,30,70,54,166,71,179,241,34,215,194,148,182,154,32,19,154,35,108]},"announce":[],"urlList":[]}}